<?xml version="1.0" encoding="utf-8"?>
<!-- Generator: Adobe Illustrator 19.2.0, SVG Export Plug-In . SVG Version: 6.00 Build 0)  -->
<svg version="1.1" id="Capa_1" xmlns="http://www.w3.org/2000/svg" xmlns:xlink="http://www.w3.org/1999/xlink" x="0px" y="0px"
	 viewBox="0 0 40 35" style="enable-background:new 0 0 40 35;" xml:space="preserve">
<style type="text/css">
	.st0{fill:#9C231A;}
</style>
<path class="st0" d="M1.4,22.4v-17c0-0.9,0.8-1.7,1.7-1.7h17c0.9,0,1.7,0.8,1.7,1.7v17c0,0.3-0.3,0.6-0.6,0.6H2
	C1.7,22.9,1.4,22.7,1.4,22.4z M15.1,28.2c0,2-1.6,3.6-3.6,3.6S8,30.1,8,28.2c0-2,1.6-3.6,3.6-3.6S15.1,26.2,15.1,28.2z M13.4,28.2
	c0-1-0.8-1.8-1.8-1.8s-1.8,0.8-1.8,1.8c0,1,0.8,1.8,1.8,1.8S13.4,29.2,13.4,28.2z M8.5,24.6h-8c-0.3,0-0.6,0.3-0.6,0.6v1.7
	c0,0.3,0.3,0.6,0.6,0.6h6.4C7.1,26.4,7.7,25.4,8.5,24.6z M33.7,28.2c0,2-1.6,3.6-3.6,3.6c-2,0-3.6-1.6-3.6-3.6c0-2,1.6-3.6,3.6-3.6
	C32.1,24.6,33.7,26.2,33.7,28.2z M31.9,28.2c0-1-0.8-1.8-1.8-1.8c-1,0-1.8,0.8-1.8,1.8c0,1,0.8,1.8,1.8,1.8S31.9,29.2,31.9,28.2z
	 M40,25.2v1.7c0,0.3-0.3,0.6-0.6,0.6h-4.6c-0.3-2.3-2.3-4-4.6-4c-2.4,0-4.3,1.7-4.6,4h-9.3c-0.2-1.1-0.7-2.2-1.6-2.9h8.8V8.3
	c0-0.6,0.5-1.1,1.1-1.1H30c1.5,0,2.9,0.8,3.8,2l3.5,5.1c0.5,0.8,0.8,1.6,0.8,2.6v7.8h1.4C39.7,24.6,40,24.9,40,25.2z M34.2,14.5
	l-2.8-3.9c-0.1-0.2-0.3-0.2-0.5-0.2h-4.3c-0.3,0-0.6,0.3-0.6,0.6v3.9c0,0.3,0.3,0.6,0.6,0.6h7.1C34.2,15.4,34.5,14.8,34.2,14.5z"/>
</svg>
