<?xml version="1.0" encoding="utf-8"?>
<!-- Generator: Adobe Illustrator 19.2.0, SVG Export Plug-In . SVG Version: 6.00 Build 0)  -->
<svg version="1.1" id="Capa_1" xmlns="http://www.w3.org/2000/svg" xmlns:xlink="http://www.w3.org/1999/xlink" x="0px" y="0px"
	 viewBox="0 0 11.2 15.9" style="enable-background:new 0 0 11.2 15.9;" xml:space="preserve">
<style type="text/css">
	.st0{fill:#9C231A;}
</style>
<path class="st0" d="M5.6,0C2.5,0,0,2.5,0,5.6c0,0.2,0,0.5,0,0.7c0.5,4.4,5.2,9.4,5.2,9.4c0.1,0.1,0.2,0.2,0.2,0.2l0,0L5.7,16
	l0.2-0.1l0,0c0.1,0,0.2-0.1,0.2-0.2c0,0,4.7-5.1,5.1-9.5c0-0.2,0-0.5,0-0.7C11.2,2.5,8.7,0,5.6,0z M5.6,9.2C3.6,9.2,2,7.6,2,5.6
	S3.6,2,5.6,2s3.6,1.6,3.6,3.6S7.6,9.2,5.6,9.2z"/>
</svg>
