<?xml version="1.0" encoding="utf-8"?>
<!-- Generator: Adobe Illustrator 19.2.0, SVG Export Plug-In . SVG Version: 6.00 Build 0)  -->
<svg version="1.1" id="Layer_1" xmlns="http://www.w3.org/2000/svg" xmlns:xlink="http://www.w3.org/1999/xlink" x="0px" y="0px"
	 viewBox="0 0 30.7 24.2" style="enable-background:new 0 0 30.7 24.2;" xml:space="preserve">
<style type="text/css">
	.st0{fill:#FFFFFF;}
</style>
<path class="st0" d="M28.7,6.4h-0.8v9.3c0,1.4-0.8,2.7-2.5,2.7H8.7v0.4c0,1.3,1.4,2.6,2.9,2.6h12.6l4.8,2.8l-0.7-2.8h0.2
	c1.5,0,2.2-1.3,2.2-2.6V8.6C30.7,7.3,30.2,6.4,28.7,6.4z M22.8,0H3.7C1.9,0,0,1.5,0,2.9v11.6c0,1.3,1.6,2.3,3.2,2.4l-1,3.9l6.6-3.9
	h14c1.7,0,3.2-1,3.2-2.5V5.1V2.9C26,1.5,24.4,0,22.8,0z M6.5,9.7c-1,0-1.7-0.8-1.7-1.7s0.8-1.7,1.7-1.7c1,0,1.7,0.8,1.7,1.7
	S7.5,9.7,6.5,9.7z M13,9.7c-1,0-1.7-0.8-1.7-1.7S12,6.3,13,6.3s1.7,0.8,1.7,1.7S14,9.7,13,9.7z M19.5,9.7c-1,0-1.7-0.8-1.7-1.7
	s0.8-1.7,1.7-1.7c1,0,1.7,0.8,1.7,1.7S20.4,9.7,19.5,9.7z"/>
</svg>
