<?xml version="1.0" encoding="utf-8"?>
<!-- Generator: Adobe Illustrator 19.2.0, SVG Export Plug-In . SVG Version: 6.00 Build 0)  -->
<svg version="1.1" id="Capa_1" xmlns="http://www.w3.org/2000/svg" xmlns:xlink="http://www.w3.org/1999/xlink" x="0px" y="0px"
	 viewBox="0 0 40 40" style="enable-background:new 0 0 40 40;" xml:space="preserve">
<style type="text/css">
	.st0{fill:#9C231A;}
</style>
<path class="st0" d="M40,31.6c0.1,0.7-0.1,1.2-0.6,1.7l-5.6,5.6c-0.3,0.3-0.6,0.5-1,0.7c-0.4,0.2-0.8,0.3-1.2,0.4c0,0-0.1,0-0.3,0
	c-0.1,0-0.3,0-0.6,0c-0.5,0-1.4-0.1-2.6-0.3c-1.2-0.2-2.7-0.6-4.4-1.4c-1.7-0.7-3.7-1.8-5.9-3.2s-4.5-3.4-7-5.9
	c-2-2-3.6-3.8-4.9-5.6c-1.3-1.8-2.3-3.4-3.1-4.9C2,17.2,1.4,15.8,1,14.6c-0.4-1.2-0.7-2.3-0.8-3.2C0,10.5,0,9.8,0,9.3s0-0.8,0-0.8
	C0.1,8,0.2,7.6,0.4,7.2c0.2-0.4,0.4-0.7,0.7-1l5.6-5.6C7.2,0.2,7.6,0,8.1,0c0.4,0,0.7,0.1,1,0.3s0.5,0.5,0.7,0.8l4.5,8.6
	c0.3,0.5,0.3,0.9,0.2,1.5c-0.1,0.5-0.4,1-0.7,1.4l-2.1,2.1c-0.1,0.1-0.1,0.1-0.1,0.3c0,0.1-0.1,0.2-0.1,0.3c0.1,0.6,0.4,1.3,0.8,2
	c0.3,0.7,0.9,1.5,1.6,2.5c0.7,1,1.7,2.1,3,3.4c1.3,1.3,2.4,2.3,3.4,3s1.8,1.3,2.5,1.6c0.7,0.3,1.2,0.5,1.5,0.6l0.5,0.1
	c0.1,0,0.1,0,0.3-0.1c0.1,0,0.2-0.1,0.3-0.1l2.4-2.5c0.5-0.5,1.1-0.7,1.8-0.7c0.5,0,0.9,0.1,1.1,0.3h0l8.2,4.8
	C39.6,30.5,39.9,31,40,31.6z"/>
</svg>
