<?xml version="1.0" encoding="utf-8"?>
<!-- Generator: Adobe Illustrator 19.2.0, SVG Export Plug-In . SVG Version: 6.00 Build 0)  -->
<svg version="1.1" id="Layer_1" xmlns="http://www.w3.org/2000/svg" xmlns:xlink="http://www.w3.org/1999/xlink" x="0px" y="0px"
	 viewBox="0 0 40.5 28.3" style="enable-background:new 0 0 40.5 28.3;" xml:space="preserve">
<path fill="#FFF" d="M20.2,8.7v16.7l13.3-2.5v-8.1c0-0.3,0.3-0.6,0.6-0.6l1.6,0.3c0.3,0,0.5,0.3,0.5,0.6v9.5c0,0.3-0.2,0.5-0.5,0.6
	l-14.6,3.1c-0.7,0.2-1.4,0.2-2.1,0l-14.4-3c-0.3-0.1-0.4-0.3-0.5-0.5L4,15c0-0.3,0.2-0.6,0.5-0.6l12.2-1.1c0.2,0,0.4-0.2,0.5-0.4
	l1.8-4.5C19.3,7.9,20.2,8.1,20.2,8.7z M3.9,3.2l-3.8,8.2c-0.2,0.4,0.1,0.9,0.6,0.8L15,10.8c0.2,0,0.4-0.1,0.5-0.3L20.2,0L4.3,2.9
	C4.1,2.9,4,3.1,3.9,3.2z M20.2,0l4.9,10.8c0.1,0.2,0.3,0.3,0.5,0.3l14.4,1.2c0.4,0,0.7-0.4,0.6-0.8l-3.8-8.2
	c-0.1-0.2-0.2-0.3-0.4-0.3L20.2,0z"/>
</svg>
