<?xml version="1.0" encoding="utf-8"?>
<!-- Generator: Adobe Illustrator 19.2.0, SVG Export Plug-In . SVG Version: 6.00 Build 0)  -->
<svg version="1.1" id="Capa_1" xmlns="http://www.w3.org/2000/svg" xmlns:xlink="http://www.w3.org/1999/xlink" x="0px" y="0px"
	 viewBox="0 0 40 40" style="enable-background:new 0 0 40 40;" xml:space="preserve">
<style type="text/css">
	.st0{fill:#FFFFFF;}
</style>
<path class="st0" d="M24.1,9c1.8,1.2,3.1,3.1,3.4,5.4c0.8,0.4,1.6,0.6,2.5,0.6c3.2,0,5.9-2.6,5.9-5.9c0-3.2-2.6-5.9-5.9-5.9
	C26.8,3.2,24.2,5.8,24.1,9z M20.3,21c3.2,0,5.9-2.6,5.9-5.9s-2.6-5.9-5.9-5.9s-5.9,2.6-5.9,5.9S17.1,21,20.3,21z M22.8,21.4h-5
	c-4.1,0-7.5,3.4-7.5,7.5v6.1l0,0.1l0.4,0.1c3.9,1.2,7.4,1.6,10.2,1.6c5.5,0,8.7-1.6,8.9-1.7l0.4-0.2h0v-6.1
	C30.3,24.7,26.9,21.4,22.8,21.4z M32.5,15.3h-4.9c-0.1,2-0.9,3.8-2.2,5c3.7,1.1,6.4,4.5,6.4,8.5v1.9c4.9-0.2,7.7-1.6,7.9-1.7
	l0.4-0.2h0v-6.1C40,18.7,36.6,15.3,32.5,15.3z M10,14.9c1.1,0,2.2-0.3,3.1-0.9c0.3-1.9,1.3-3.5,2.7-4.6c0-0.1,0-0.2,0-0.3
	c0-3.2-2.6-5.9-5.9-5.9C6.8,3.2,4.2,5.8,4.2,9C4.2,12.3,6.8,14.9,10,14.9z M15.3,20.3c-1.3-1.3-2.2-3-2.2-5c-0.2,0-0.4,0-0.6,0h-5
	c-4.1,0-7.5,3.4-7.5,7.5v6.1L0,29l0.4,0.1c3.2,1,6,1.4,8.4,1.6v-1.8C8.9,24.8,11.6,21.4,15.3,20.3z"/>
</svg>
