<?xml version="1.0" encoding="utf-8"?>
<svg version="1.1" xmlns="http://www.w3.org/2000/svg" xmlns:xlink="http://www.w3.org/1999/xlink" x="0px" y="0px"
	 viewBox="0 0 989.5 293.5" xml:space="preserve">
<path fill="#FFFFFF" d="M147.6,27.1l-5.4,53.5l-54.5-0.1L89,67.4H62.2l-6.7,67.3l27,0.1l1.5-13.6l54.2-0.1l-5.7,54.2
	l-134.7-0.1L12.4,27.1H147.6z M296.6,27.1l-15,148.2l-134.2-0.1l14.7-148.1H296.6z M238.7,67.4h-26.8l-6.7,67.3l27,0.1L238.7,67.4z
	 M445.6,27.1l-14.8,148.2l-53.8,0.1l10.8-108h-27.2l-10.7,107.9l-53.4-0.1l14.7-148.1H445.6z M594.5,27.1l-14.8,148.2l-53.8,0.1
	l10.8-108h-27.2l-10.7,107.9l-53.4-0.1L460,27.1H594.5z M743.6,27.1l-4,40.6l-19.3,53.9l-53.8-0.1l19.3-54.1h-27.1l-6.7,67.3h80.9
	l-4.2,40.6l-134.5-0.1l14.7-148.1H743.6z M893.4,27.1L888,80.6l-54.5-0.1l1.3-13.1h-26.8l-6.7,67.3l27,0.1l1.5-13.6l54.2-0.1
	l-5.7,54.2l-134.7-0.1l14.7-148.1H893.4z M893.3,175.2l17.3-175L964.5,0l-2.6,26.7l27.5,0.1l-4,40.5l-27.6,0.1l-6.7,67.4h27
	l-3.8,40.5L893.3,175.2z M66.4,203.7l-1.8,18l-8.6,24l-23.9-0.1l8.6-24h-12l-3,29.9h36l-1.9,18L0,269.5l6.5-65.8H66.4z M99.2,269.6
	L92.3,254l-11.1,15.6h-18l22.1-30.9l-15.3-35.1h23.9l6.7,15.8l11.1-15.9h18l-22.3,30.6l15.6,35.3L99.2,269.6z M192.6,203.7
	l-6.6,65.9h-29.9l1.9-18h5.9l3-30h-11.9l-7.1,71.9l-23.9-0.1l8.9-89.8H192.6z M259,203.5l-3.1,30.1h-24l1.2-12h-11.9l-4.9,47.9
	l-23.8-0.1l6.6-66H259z M325.3,203.7l-1.8,18l-8.6,24l-23.9-0.1l8.6-24h-12l-3,29.9h36l-1.9,18l-59.8-0.1l6.5-65.8H325.3z
	 M391.8,203.5l-1.9,18.2l-36-0.1l-0.7,6.1h36l-4.2,41.9l-59.8-0.1l1.7-17.8h35.8l0.6-6.1l-35.8-0.1l4.2-42H391.8z M458.2,203.5
	l-1.9,18.2l-36-0.1l-0.7,6.1h36l-4.2,41.9l-59.8-0.1l1.7-17.8h35.8l0.6-6.1l-35.8-0.1l4.2-42H458.2z M558.8,203.7l-2.4,23.8
	l-24.2-0.1l0.6-5.8h-11.9l-3,29.9l12,0.1l0.7-6.1l24.1-0.1l-2.5,24.1l-59.9-0.1l6.5-65.8H558.8z M625.1,203.7l-6.7,65.9l-59.6-0.1
	l6.5-65.8H625.1z M599.4,221.6h-11.9l-3,29.9l12,0.1L599.4,221.6z M624.9,269.6l6.6-65.8l23.8-0.1l-4.9,47.9h12.1l4.8-48l23.9,0.1
	l-6.6,65.8H624.9z M757.6,203.5l-3.1,30.1h-24l1.2-12h-11.9l-4.9,47.9l-23.8-0.1l6.6-66H757.6z M757.5,269.6l6.7-65.9H788l-6.7,65.8
	L757.5,269.6z M854.3,203.7l-1.8,18l-8.6,24l-23.9-0.1l8.6-24h-12l-3,29.9h36l-1.9,18l-59.8-0.1l6.5-65.8H854.3z M920.8,203.5
	l-3.1,30.1h-24l1.2-12H883l-4.9,47.9l-23.8-0.1l6.6-66H920.8z M987.1,203.5l-1.9,18.2l-36-0.1l-0.7,6.1h36l-4.2,41.9l-59.8-0.1
	l1.7-17.8h35.8l0.6-6.1l-35.8-0.1l4.2-42H987.1z"/>
</svg>
